# xmcd CD database file
#
# Track frame offsets:
#	150
#	16417
#	29983
#	43417
#	56806
#	70595
#	89214
#	104891
#	121927
#	137214
#	149730
#	166319
#	186458
#	200540
#	216571
#	231780
#	248414
#	263901
#	280442
#	293999
#	305975
#	324609
#
# Disc length: 4475 seconds
#
# Revision: 0
# Processed by: cddbd v1.4PL0 Copyright (c) Steve Scherf et al.
# Submitted via: CDex 1.40Release
#
DISCID=7d117916
DTITLE=Tião Carreiro e Pardinho - Dose Dupla - Volume 9
DYEAR=2003
DGENRE=Country
TTITLE0=Última viagem
TTITLE1=Rio Preto de luto
TTITLE2=Boi "Sete Ouro"
TTITLE3=Rei do gado
TTITLE4=O mineiro e o italiano
TTITLE5=Padecimento
TTITLE6=Preto inocente
TTITLE7=Catimbau
TTITLE8=Boi cigano
TTITLE9=A viola e o violeiro
TTITLE10=Terra roxa
TTITLE11=Exemplo de humildade
TTITLE12=Pousada de boiadeiro
TTITLE13=Viola vermelha
TTITLE14=Herói sem medalha
TTITLE15=O milagre da vela
TTITLE16=Arreio de prata
TTITLE17=Fazenda caioçara
TTITLE18=Dever do policial
TTITLE19=Saudosa vida de peão
TTITLE20=Mineiro do pé quente
TTITLE21=Boi veludo
EXTD=YEAR: 2003 ID3G: 2
EXTT0=
EXTT1=
EXTT2=
EXTT3=
EXTT4=
EXTT5=
EXTT6=
EXTT7=
EXTT8=
EXTT9=
EXTT10=
EXTT11=
EXTT12=
EXTT13=
EXTT14=
EXTT15=
EXTT16=
EXTT17=
EXTT18=
EXTT19=
EXTT20=
EXTT21=
PLAYORDER=
